<svg xmlns="http://www.w3.org/2000/svg" width="92" height="91.968" viewBox="0 0 92 91.968">
  <g id="logo" transform="translate(-9.406 -7.67)">
    <g id="그룹_1" data-name="그룹 1" transform="translate(9.406 7.67)">
      <path id="패스_1" data-name="패스 1" d="M19.351,46.207a27.115,27.115,0,0,0-7.664,9.342C9,61.017,7.334,69.773,14.709,80.417c5.483,7.909,7.025,15.371,4.582,22.176a23.079,23.079,0,0,1-7.5,10.072,1.384,1.384,0,1,0,1.666,2.21,25.423,25.423,0,0,0,8.443-11.349c2.764-7.694,1.113-16-4.909-24.687-5.28-7.618-6.241-15.012-2.862-21.98a24.686,24.686,0,0,1,6.841-8.4,1.385,1.385,0,0,0-1.614-2.25Z" transform="translate(-9.406 -23.186)" fill="#b41522"/>
      <path id="패스_2" data-name="패스 2" d="M79.33,46.557a55.492,55.492,0,0,0,2.227,16.132,54.994,54.994,0,0,0,19.628,29.248,1.383,1.383,0,0,0,1.674-2.2A52.22,52.22,0,0,1,84.251,62.042,54.083,54.083,0,0,1,82.1,46.688a1.386,1.386,0,0,0-2.768-.131Z" transform="translate(-37.744 -22.9)" fill="#b41522"/>
      <path id="패스_3" data-name="패스 3" d="M79.3,9.059v13.5a1.384,1.384,0,0,0,2.769,0V9.059a1.384,1.384,0,0,0-2.769,0Z" transform="translate(-37.739 -7.672)" fill="#b41522"/>
      <path id="패스_4" data-name="패스 4" d="M144.843,75.009a56.235,56.235,0,0,0-19.5-29.546,1.511,1.511,0,0,0-.284-.175,1.432,1.432,0,0,0-.684-.177,1.378,1.378,0,0,0-1.385,1.38v44.3a1.384,1.384,0,0,0,2.768,0V49.4a53.5,53.5,0,0,1,16.385,26.234A50.9,50.9,0,0,1,144.1,90.7a1.385,1.385,0,0,0,2.764.18A52.818,52.818,0,0,0,144.843,75.009Z" transform="translate(-55.448 -22.847)" fill="#b41522"/>
      <path id="패스_5" data-name="패스 5" d="M64.148,59.832A56.213,56.213,0,0,0,45.061,30.62V9.057a1.384,1.384,0,1,0-2.767,0V75.609a1.384,1.384,0,0,0,2.767,0V34.221A53.537,53.537,0,0,1,61.45,60.455,51.3,51.3,0,0,1,63.4,75.52a1.386,1.386,0,0,0,2.766.18A52.79,52.79,0,0,0,64.148,59.832Z" transform="translate(-22.738 -7.67)" fill="#b41522"/>
    </g>
    <g id="그룹_3" data-name="그룹 3" transform="translate(28.818 86.175)">
      <g id="그룹_2" data-name="그룹 2">
        <path id="패스_6" data-name="패스 6" d="M42.918,140.4H42.05v-.6H44.3v.6h-.866v4.8h-.516Z" transform="translate(-42.05 -139.733)" fill="#fff"/>
        <path id="패스_7" data-name="패스 7" d="M50.155,145.2v-5.405h1.7v.6H50.675v1.715h1.112v.607H50.675v1.875h1.213v.6Z" transform="translate(-45.335 -139.733)" fill="#fff"/>
        <path id="패스_8" data-name="패스 8" d="M58.144,142.343l-.831-2.549h.566l.573,1.952.6-1.952h.525l-.85,2.6.9,2.81h-.554l-.639-2.146-.689,2.146H57.2Z" transform="translate(-48.19 -139.733)" fill="#fff"/>
        <path id="패스_9" data-name="패스 9" d="M66.272,140.4H65.41v-.6h2.247v.6h-.866v4.8h-.519Z" transform="translate(-51.519 -139.733)" fill="#fff"/>
        <path id="패스_10" data-name="패스 10" d="M73.492,139.794h.52V145.2h-.52Z" transform="translate(-54.795 -139.733)" fill="#fff"/>
        <path id="패스_11" data-name="패스 11" d="M78.976,145.2v-5.405h.517v4.8h1.1v.6Z" transform="translate(-57.018 -139.733)" fill="#fff"/>
        <path id="패스_12" data-name="패스 12" d="M85.964,145.2v-5.405h1.7v.6H86.483v1.715H87.6v.607H86.483v1.875H87.7v.6Z" transform="translate(-59.851 -139.733)" fill="#fff"/>
        <path id="패스_13" data-name="패스 13" d="M100.054,144.974l.183-.668a1.014,1.014,0,0,0,.35.243.78.78,0,0,0,.378.1.555.555,0,0,0,.466-.229.907.907,0,0,0,.179-.59,1.276,1.276,0,0,0-.1-.5,1.3,1.3,0,0,0-.5-.5l-.3-.2a1.416,1.416,0,0,1-.529-.6,2.167,2.167,0,0,1-.149-.832,1.585,1.585,0,0,1,.293-.983.906.906,0,0,1,.744-.391,1.087,1.087,0,0,1,.854.284l-.15.628a.983.983,0,0,0-.3-.194.9.9,0,0,0-.381-.093.451.451,0,0,0-.4.205.881.881,0,0,0-.152.535,1.218,1.218,0,0,0,.053.367.8.8,0,0,0,.15.278,1.966,1.966,0,0,0,.386.312l.3.205a1.383,1.383,0,0,1,.53.61,2.3,2.3,0,0,1,.157.9,1.568,1.568,0,0,1-.338,1.014,1.085,1.085,0,0,1-.89.414A1.177,1.177,0,0,1,100.054,144.974Z" transform="translate(-65.556 -139.75)" fill="#fff"/>
        <path id="패스_14" data-name="패스 14" d="M107.928,144.838a3.167,3.167,0,0,1-.228-1.431v-1.993a2.656,2.656,0,0,1,.251-1.317.911.911,0,0,1,.826-.4.888.888,0,0,1,.823.4,2.667,2.667,0,0,1,.247,1.342v2.271a2.109,2.109,0,0,1-.247,1.162.935.935,0,0,1-.823.356A.9.9,0,0,1,107.928,144.838Zm1.272-.462a1.925,1.925,0,0,0,.131-.82v-2.269a1.732,1.732,0,0,0-.121-.777.508.508,0,0,0-.86.056,2.15,2.15,0,0,0-.127.859v2a2.452,2.452,0,0,0,.12.945.436.436,0,0,0,.435.259A.444.444,0,0,0,109.2,144.376Z" transform="translate(-68.662 -139.691)" fill="#fff"/>
        <path id="패스_15" data-name="패스 15" d="M115.879,145.2v-5.405h.524v4.8H117.5v.6Z" transform="translate(-71.977 -139.733)" fill="#fff"/>
        <path id="패스_16" data-name="패스 16" d="M125.021,143.835a1.786,1.786,0,0,1-.27,1.073,1.054,1.054,0,0,1-1.586,0,1.783,1.783,0,0,1-.266-1.073v-4.041h.519v3.832a1.723,1.723,0,0,0,.135.792.464.464,0,0,0,.821.005,1.87,1.87,0,0,0,.128-.8v-3.832h.521Z" transform="translate(-74.822 -139.733)" fill="#fff"/>
        <path id="패스_17" data-name="패스 17" d="M131.654,140.4h-.864v-.6h2.251v.6h-.866v4.8h-.521Z" transform="translate(-78.021 -139.733)" fill="#fff"/>
        <path id="패스_18" data-name="패스 18" d="M138.869,139.794h.522V145.2h-.522Z" transform="translate(-81.296 -139.733)" fill="#fff"/>
        <path id="패스_19" data-name="패스 19" d="M144.587,144.838a3.117,3.117,0,0,1-.231-1.431v-1.993a2.613,2.613,0,0,1,.253-1.317.906.906,0,0,1,.821-.4.9.9,0,0,1,.832.4,2.7,2.7,0,0,1,.243,1.342v2.271a2.067,2.067,0,0,1-.249,1.162.937.937,0,0,1-.825.356A.9.9,0,0,1,144.587,144.838Zm1.271-.462a1.932,1.932,0,0,0,.131-.82v-2.269a1.726,1.726,0,0,0-.124-.777.452.452,0,0,0-.436-.212.437.437,0,0,0-.42.268,2.092,2.092,0,0,0-.135.859v2a2.464,2.464,0,0,0,.122.945.436.436,0,0,0,.433.259A.45.45,0,0,0,145.857,144.376Z" transform="translate(-83.521 -139.691)" fill="#fff"/>
        <path id="패스_20" data-name="패스 20" d="M153,145.2h-.492v-5.405h.817l.975,4.671v-4.671h.489V145.2h-.825L153,140.563Z" transform="translate(-86.827 -139.733)" fill="#fff"/>
        <path id="패스_21" data-name="패스 21" d="M160.645,144.974l.182-.668a.994.994,0,0,0,.346.243.782.782,0,0,0,.376.1.556.556,0,0,0,.468-.229.929.929,0,0,0,.181-.59,1.237,1.237,0,0,0-.1-.5,1.311,1.311,0,0,0-.5-.5l-.295-.2a1.429,1.429,0,0,1-.533-.6,2.179,2.179,0,0,1-.146-.832,1.6,1.6,0,0,1,.291-.983.913.913,0,0,1,.75-.391,1.076,1.076,0,0,1,.847.284l-.147.628a.972.972,0,0,0-.305-.194.9.9,0,0,0-.381-.093.467.467,0,0,0-.4.205.9.9,0,0,0-.144.535,1.15,1.15,0,0,0,.051.367.83.83,0,0,0,.146.278,2.287,2.287,0,0,0,.391.312l.3.205a1.374,1.374,0,0,1,.534.61,2.309,2.309,0,0,1,.153.9,1.6,1.6,0,0,1-.331,1.014,1.11,1.11,0,0,1-.893.414A1.159,1.159,0,0,1,160.645,144.974Z" transform="translate(-90.115 -139.75)" fill="#fff"/>
      </g>
    </g>
  </g>
</svg>
